<?xml version="1.0" encoding="UTF-8"?>
<!DOCTYPE svg PUBLIC "-//W3C//DTD SVG 1.1//EN" "http://www.w3.org/Graphics/SVG/1.1/DTD/svg11.dtd">
<!-- Creator: CorelDRAW 2018 (64-Bit) -->
<svg xmlns="http://www.w3.org/2000/svg" xml:space="preserve" width="50.3766mm" height="71.2892mm" version="1.1" style="shape-rendering:geometricPrecision; text-rendering:geometricPrecision; image-rendering:optimizeQuality; fill-rule:evenodd; clip-rule:evenodd"
viewBox="0 0 5037.66 7128.92"
 xmlns:xlink="http://www.w3.org/1999/xlink">
 <defs>
  <style type="text/css">
   <![CDATA[
    .fil1 {fill:#0D826B}
    .fil5 {fill:#44C29C}
    .fil4 {fill:#92E0C9}
    .fil3 {fill:#44C29C;fill-rule:nonzero}
    .fil7 {fill:#92E0C9;fill-rule:nonzero}
    .fil2 {fill:#44C29C;fill-opacity:0.101961}
    .fil6 {fill:#92E0C9;fill-opacity:0.101961}
    .fil0 {fill:url(#id0)}
   ]]>
  </style>
  <linearGradient id="id0" gradientUnits="userSpaceOnUse" x1="6497.99" y1="5842.99" x2="6497.99" y2="2543.01">
   <stop offset="0" style="stop-opacity:1; stop-color:#006838"/>
   <stop offset="0.478431" style="stop-opacity:1; stop-color:#44C29C"/>
   <stop offset="1" style="stop-opacity:1; stop-color:#0C6956"/>
  </linearGradient>
 </defs>
 <g id="Слой_x0020_1">
  <metadata id="CorelCorpID_0Corel-Layer"/>
  <polygon class="fil0" points="5099.13,2471.06 5099.13,-175.54 -129.8,-175.54 -129.8,2471.06 "/>
  <path class="fil1" d="M3423.92 -175.54l0 1400.39c-798.01,-1.77 -1163.32,-515.33 -1181.48,-1400.39l-217.95 0c19.32,1006.95 495.18,1617.07 1398.83,1618.25l0 1028.35 443.58 0 0 -2646.6 -442.98 0z"/>
  <path class="fil2" d="M3867.5 1223.03c-76.04,47.68 -149.67,50.7 -220.88,0 -74.22,-61.55 -147.86,-54.31 -220.87,0l0 -144.23c70.01,-42.85 142.42,-50.7 220.87,0 71.22,51.89 144.84,48.89 220.88,0l0 144.23z"/>
  <path class="fil2" d="M3867.5 124.06c-76.04,47.68 -149.67,50.7 -220.88,0 -74.22,-61.56 -147.86,-54.31 -220.87,0l-0.01 -299.6 441.76 0 0 299.6 0 0z"/>
  <path class="fil2" d="M3867.5 371.49c-76.04,47.68 -149.67,50.7 -220.88,0 -74.22,-61.55 -147.86,-54.31 -220.87,0l-0.01 -144.23c70.01,-42.85 142.42,-50.7 220.87,0 71.22,51.89 144.84,48.88 220.88,0l0.01 144.23z"/>
  <path class="fil3" d="M2839.43 -175.54c18.9,300.77 148.62,571.56 348.9,771.84 217.01,217.01 516.83,351.28 848.15,351.28 331.32,0 631.14,-134.27 848.15,-351.28 200.28,-200.28 330,-471.07 348.9,-771.84l12.66 0c-18.92,304.24 -150.1,578.18 -352.66,780.74 -219.3,219.3 -522.26,354.98 -857.05,354.98 -334.79,0 -637.75,-135.68 -857.05,-354.98 -202.56,-202.56 -333.74,-476.5 -352.66,-780.74l12.66 0z"/>
  <path class="fil4" d="M2833.17 -175.54c39.41,630.11 562.74,1129.42 1203.31,1129.42 640.58,0 1163.9,-499.32 1203.31,-1129.42l-61.93 0c-36.62,598.77 -533.35,1072.69 -1141.38,1072.69 -608.02,0 -1104.76,-473.92 -1141.38,-1072.69l-61.93 0z"/>
  <path class="fil5" d="M4449.88 955.68c-16.89,-17.5 -22.93,-40.43 -19.31,-62.76 22.33,-3.02 45.27,4.23 62.16,21.73 16.9,17.5 22.94,40.43 19.31,62.76 -21.72,3.02 -45.26,-4.83 -62.16,-21.73z"/>
  <path class="fil4" d="M4430.56 892.92c22.33,-3.02 45.27,4.23 62.16,21.73 16.9,17.5 22.94,40.43 19.31,62.76l-81.47 -84.49z"/>
  <path class="fil5" d="M3974.32 830.16c-16.89,17.5 -22.93,40.43 -19.31,62.76 22.33,3.02 45.27,-4.23 62.16,-21.73 16.9,-17.5 22.94,-40.43 19.31,-62.76 -22.33,-3.02 -45.86,4.23 -62.16,21.73z"/>
  <path class="fil4" d="M3954.41 892.92c22.33,3.02 45.26,-4.23 62.16,-21.73 16.9,-17.5 22.93,-40.43 19.31,-62.76l-81.47 84.49z"/>
  <polygon class="fil1" points="751.01,2471.06 751.01,-175.54 295.37,-175.54 295.37,2471.06 "/>
  <path class="fil6" d="M750.42 2248.98c-76.04,47.68 -161.74,50.7 -232.96,0 -74.22,-61.55 -147.85,-54.31 -220.87,0l0 -144.23c70.01,-42.85 142.42,-50.7 220.87,0 71.22,51.89 156.91,48.88 232.96,0l0 144.23z"/>
  <polygon class="fil4" points="4233.22,2471.06 4233.22,-175.54 4180.12,-175.54 4180.12,2471.06 "/>
  <path class="fil7" d="M4230.07 2471.06l0 -2646.6 6.3 0 0 2646.6 -6.3 0zm-46.8 -2646.6l0 2646.6 -6.3 0 0 -2646.6 6.3 0z"/>
  <path id="leaf-2" class="fil5" d="M4256.76 2229.07c-16.9,-17.5 -22.93,-40.44 -19.31,-62.77 22.33,-3.01 45.26,4.23 62.16,21.73 16.9,17.5 22.93,40.43 19.31,62.77 -21.73,3.01 -45.26,-4.83 -62.16,-21.73z"/>
  <path class="fil4" d="M4179.51 1723.34c0,-0.6 0,-0.6 0,-1.21l-0.6 0.61c-44.06,-21.13 -102.59,-16.9 -151.48,15.68 -49.49,32.59 -76.04,84.5 -73.63,133.38l-0.6 0.61c0,0 0.6,0 1.21,0.6 0,0.6 0,0.6 0,1.21l0.6 -0.61c44.06,21.13 102.6,16.9 151.48,-15.68 49.5,-32.59 76.04,-84.5 73.63,-133.38l0.6 -0.61c-0.6,0 -1.21,0 -1.21,-0.6z"/>
  <path class="fil5" d="M3952.6 1874.22l227.52 -150.28c-44.06,-22.33 -103.8,-18.1 -153.3,14.48 -50.09,33.2 -77.24,86.31 -74.22,135.8z"/>
 </g>
</svg>
